<svg id="레이어_1" data-name="레이어 1" xmlns="http://www.w3.org/2000/svg" xmlns:xlink="http://www.w3.org/1999/xlink" viewBox="0 0 1000 1000"><defs><style>.cls-1,.cls-5{fill:none;}.cls-2,.cls-4{fill:#fff;}.cls-3{clip-path:url(#clip-path);}.cls-4,.cls-5{stroke:#000;stroke-miterlimit:10;}</style><clipPath id="clip-path"><rect class="cls-1" x="592" y="335" width="227" height="329"/></clipPath></defs><title>대지 1</title><rect class="cls-2" x="300.5" y="334.5" width="292" height="329"/><path d="M300.5,663.49a168.84,168.84,0,0,1-118-48.24c-31.62-31-49-72.15-49-115.91s17.42-84.93,49-115.91a168.84,168.84,0,0,1,118-48.24Z"/><path d="M300,335.69V663a168.37,168.37,0,0,1-117.11-48.1C151.36,584,134,543,134,499.34s17.36-84.66,48.89-115.55A168.37,168.37,0,0,1,300,335.69m1-1c-92.83.26-168,73.87-168,164.65S208.17,663.73,301,664V334.69Z"/><path d="M323.8,663.5q6.15-.56,12.21-1.41C449.12,646.78,536.3,559.08,546.5,454V663.5Z"/><path d="M546,462.56V663H333c1-.13,2.06-.27,3.08-.42,110.28-14.92,196-98.53,209.93-200M547,434c-.35,115.78-91.93,211.47-211.06,227.59A245,245,0,0,1,301.5,664H547V434Z"/><path class="cls-2" d="M301,664h0Z"/><path d="M301.19,664h0Z"/><path class="cls-2" d="M301,334.68h0Z"/><path d="M301.5,334.68h0Z"/><path class="cls-2" d="M301,664h0Z"/><path d="M301,664h0Z"/><path d="M300.5,383.49h210c-.25,57.5-18.78,113-52.21,156.18-33.19,42.93-78.79,71.06-128.4,79.19a190.08,190.08,0,0,1-29.39,2.49Z"/><path d="M510,384c-.36,57.21-18.84,112.36-52.1,155.38-33.12,42.83-78.61,70.88-128.09,79A187.6,187.6,0,0,1,301,620.84V384H510m1-1H300V621.85h.16a188.33,188.33,0,0,0,29.81-2.5C432.15,602.6,510.7,503.22,511,383Z"/><path class="cls-2" d="M299.5,621.35c-59.94-.49-108.63-53.73-108.63-118.93S239.56,384,299.5,383.49Z"/><path d="M299,384V620.84c-28.64-.37-55.53-12.69-75.79-34.76-20.53-22.36-31.84-52.07-31.84-83.66s11.31-61.3,31.84-83.66C243.47,396.69,270.36,384.37,299,384m1-1c-60.57.19-109.63,53.58-109.63,119.43S239.43,621.66,300,621.85V383Z"/><g class="cls-3"><line class="cls-4" x1="724.52" y1="139.03" x2="1046" y2="460.2"/><line class="cls-4" x1="717.37" y1="146.16" x2="1038.85" y2="467.34"/><line class="cls-4" x1="710.23" y1="153.3" x2="1031.71" y2="474.47"/><line class="cls-4" x1="703.08" y1="160.44" x2="1024.56" y2="481.61"/><line class="cls-4" x1="695.93" y1="167.58" x2="1017.42" y2="488.75"/><line class="cls-4" x1="688.79" y1="174.72" x2="1010.27" y2="495.89"/><line class="cls-4" x1="681.64" y1="181.86" x2="1003.13" y2="503.03"/><line class="cls-4" x1="674.5" y1="188.99" x2="995.98" y2="510.17"/><line class="cls-4" x1="667.35" y1="196.13" x2="988.84" y2="517.31"/><line class="cls-4" x1="660.21" y1="203.27" x2="981.69" y2="524.44"/><line class="cls-4" x1="653.06" y1="210.41" x2="974.55" y2="531.58"/><line class="cls-4" x1="645.92" y1="217.55" x2="967.4" y2="538.72"/><line class="cls-4" x1="638.77" y1="224.69" x2="960.26" y2="545.86"/><line class="cls-4" x1="631.63" y1="231.83" x2="953.11" y2="553"/><line class="cls-4" x1="624.48" y1="238.96" x2="945.96" y2="560.14"/><line class="cls-4" x1="617.34" y1="246.1" x2="938.82" y2="567.27"/><line class="cls-4" x1="610.19" y1="253.24" x2="931.67" y2="574.41"/><line class="cls-4" x1="603.04" y1="260.38" x2="924.53" y2="581.55"/><line class="cls-4" x1="595.9" y1="267.52" x2="917.38" y2="588.69"/><line class="cls-4" x1="588.75" y1="274.66" x2="910.24" y2="595.83"/><line class="cls-4" x1="581.61" y1="281.79" x2="903.09" y2="602.97"/><line class="cls-4" x1="574.46" y1="288.93" x2="895.95" y2="610.11"/><line class="cls-4" x1="567.32" y1="296.07" x2="888.8" y2="617.24"/><line class="cls-4" x1="560.17" y1="303.21" x2="881.66" y2="624.38"/><line class="cls-4" x1="553.03" y1="310.35" x2="874.51" y2="631.52"/><line class="cls-4" x1="545.88" y1="317.49" x2="867.37" y2="638.66"/><line class="cls-4" x1="538.74" y1="324.63" x2="860.22" y2="645.8"/><line class="cls-4" x1="531.59" y1="331.76" x2="853.07" y2="652.94"/><line class="cls-4" x1="524.45" y1="338.9" x2="845.93" y2="660.07"/><line class="cls-4" x1="517.3" y1="346.04" x2="838.78" y2="667.21"/><line class="cls-4" x1="510.16" y1="353.18" x2="831.64" y2="674.35"/><line class="cls-4" x1="503.01" y1="360.32" x2="824.49" y2="681.49"/><line class="cls-4" x1="495.86" y1="367.46" x2="817.35" y2="688.63"/><line class="cls-4" x1="488.72" y1="374.59" x2="810.2" y2="695.77"/><line class="cls-4" x1="481.57" y1="381.73" x2="803.06" y2="702.91"/><line class="cls-4" x1="474.43" y1="388.87" x2="795.91" y2="710.04"/><line class="cls-4" x1="467.28" y1="396.01" x2="788.77" y2="717.18"/><line class="cls-4" x1="460.14" y1="403.15" x2="781.62" y2="724.32"/><line class="cls-4" x1="452.99" y1="410.29" x2="774.48" y2="731.46"/><line class="cls-4" x1="445.85" y1="417.43" x2="767.33" y2="738.6"/><line class="cls-4" x1="438.7" y1="424.56" x2="760.18" y2="745.74"/><line class="cls-4" x1="431.56" y1="431.7" x2="753.04" y2="752.87"/><line class="cls-4" x1="424.41" y1="438.84" x2="745.89" y2="760.01"/><line class="cls-4" x1="417.27" y1="445.98" x2="738.75" y2="767.15"/><line class="cls-4" x1="410.12" y1="453.12" x2="731.6" y2="774.29"/><line class="cls-4" x1="402.97" y1="460.26" x2="724.46" y2="781.43"/><line class="cls-4" x1="395.83" y1="467.39" x2="717.31" y2="788.57"/><line class="cls-4" x1="388.68" y1="474.53" x2="710.17" y2="795.7"/><line class="cls-4" x1="381.54" y1="481.67" x2="703.02" y2="802.84"/></g><line class="cls-5" x1="301.5" y1="335.5" x2="592.5" y2="335.5"/><line class="cls-5" x1="424.5" y1="663.5" x2="593" y2="663.5"/></svg>